<?xml version="1.0" encoding="utf-8"?>
<!-- Generator: Adobe Illustrator 24.0.1, SVG Export Plug-In . SVG Version: 6.00 Build 0)  -->
<svg version="1.1" id="Logotyper" xmlns="http://www.w3.org/2000/svg" xmlns:xlink="http://www.w3.org/1999/xlink" x="0px" y="0px"
     viewBox="0 0 179.5 179.5" style="enable-background:new 0 0 179.5 179.5;" xml:space="preserve">
<style type="text/css">
	.st0{fill:#FFFFFF;}
</style>
  <g id="Group_33" transform="translate(-337.004 -221)">
	<g id="Group_27" transform="translate(143.967)">
		<path id="Path_1187" class="st0" d="M339.9,238.8c0.1,0.2,0.1,0.3-0.1,0.4c-0.3,0.2-1.8,2.4-2,2.7c-0.1,0.2-0.1-0.1-0.1-0.3
			c0.5-1.5,0.1-3.1-1.1-4.2c-1.2-0.9-2.9-0.7-3.8,0.5c0,0,0,0,0,0.1c-0.9,1.4-1,2.7,0,6.3c1,3.8,0.6,5.2-0.8,6.8
			c-1.9,1.9-4.8,2-6.9,0.5c-2.7-1.9-2.8-2.3-3.2-2.5c-0.3-0.1-0.3-0.4,0-0.8c0.5-0.6,2.1-2.8,2.4-3.2c0.2-0.3,0.2,0,0,0.5
			c-0.8,1.6-0.4,3.6,1,4.8c1.2,1.1,3,1,4.1-0.1c0.1-0.1,0.1-0.1,0.2-0.2c0.8-1,1.3-1.9,0.1-6.3c-1.2-4.6-0.4-6.1,1.4-7.5
			c1.8-1.5,4.4-1.4,6.1,0c0.7,0.5,1.4,1.1,2,1.8c0.2,0.2,0.3,0.5,0.5,0.6S339.9,238.7,339.9,238.8z"/>
    <path id="Path_1188" class="st0" d="M195.3,290.9c0.1-0.2,0.2-0.1,0.5,0c0.9,0.3,1.9,0.4,2.9,0.5c0.5,0-0.3,0.4-0.6,0.4
			c-0.7,0.1-2.1,0.5-2.7,2.8c-0.4,1.3,0.3,2.7,1.6,3.1c0.1,0,0.1,0,0.2,0.1c2,0.4,3.1-0.4,6-2.7c1.8-1.9,4.4-2.8,7-2.2
			c2.4,0.9,3.8,3.4,3.2,5.9c-0.3,1.3-0.8,2.6-1.5,3.7c-0.1,0.3-0.3,0.5-0.8,0.3c-0.6-0.2-3-0.5-3.5-0.6c-0.8-0.1-0.5-0.4,0-0.4
			c1.2-0.2,3.9-0.5,4.5-3.1c0.4-1.4-0.5-2.8-1.8-3.1c-0.1,0-0.2,0-0.2,0c-1.2-0.3-2.6-0.3-6,2.6c-3.7,3.1-5.3,3.1-7.3,2.2
			c-2.1-0.9-3.2-3.3-2.6-5.5c0.2-1.1,0.6-2.2,1.1-3.3C195.3,291.3,195.3,291,195.3,290.9z"/>
    <path id="Path_1189" class="st0" d="M309.7,399.7c-0.3,0-0.2-0.2-0.2-0.4c0,0-0.7-2.2-0.7-2.4c-0.1-0.2,0.1-0.2,0.3-0.1
			c1,1,2.4,1.5,3.8,1.2c1.5-0.4,2.4-1.8,2.1-3.3c-0.5-1.6-2.1-2.4-5.5-3.9c-3.1-1.4-4.1-2.9-4.4-4.6c-0.3-2.7,1.4-5.2,4-6
			c2.6-0.8,3.2-0.7,3.7-1c0.4-0.2,0.5,0.6,0.5,0.8c0.2,0.7,0.9,2.8,1.1,3.2c0.2,0.4-0.1,0.5-0.3,0.1c-0.9-1.6-2.7-2.4-4.5-2
			c-2.3,0.8-2.6,2.4-2.3,3.5c0.4,1.2,0.6,2.2,4.9,4c4.2,1.8,5.1,3.6,5.1,5.6c-0.1,2.3-1.9,4.3-4.2,4.7c-0.7,0.2-1.4,0.3-2.1,0.3
			c-0.3,0-0.5,0.1-0.7,0.1S309.9,399.7,309.7,399.7z"/>
    <path id="Path_1190" class="st0" d="M342,243.6c0.6-0.3,1.2-0.6,1.7-1c0.2-0.2,0.6,0,0.9,0.3c0.2,0.2,4,3.9,4.7,4.7
			c1,1.1,4.4,4.1,4.8,4.6c0.4,0.4,0.8,0.6,0.4,0.9c-0.4,0.3-1.4,0.8-1.6,1c-0.3,0.1-0.2,0-0.2-0.3c0-0.3-0.2-0.8-1.2-1.8
			s-2-2.1-2.2-2.3s-0.3-0.2-0.4,0c-0.3,0.2-4,4-4.8,4.9c-2.1,1.9-4,4-5.7,6.3c-0.1,0.8,0.1,0.9,0.2,1.1s0.2,0.8,0,0.5
			s-1.8-1.9-2.1-2.3s-1.9-1.6-2.1-1.8s-0.1-0.3,0.3-0.2c0.5,0.3,1.1,0.3,1.6,0c2.1-1.7,4-3.5,5.8-5.4c0.6-0.6,4.6-4.8,4.7-4.9
			c0.2-0.2,0.2-0.3,0-0.6c-1-1.1-2.1-2.1-3.2-3c-0.3-0.3-0.7-0.4-1.1-0.4C342.1,243.8,341.7,243.8,342,243.6z"/>
    <path id="Path_1191" class="st0" d="M204.2,273.7c-0.4-0.4-1.2-1.1-1.7-1.5c-0.2-0.2-0.1-0.4,0.1-0.7c0.1-0.2,2.8-5.1,3.4-6
			c0.8-1.2,3.2-5.2,3.5-5.8c0.3-0.5,0.5-0.9,0.8-0.7c0.4,0.4,0.8,0.9,1.2,1.4c0.2,0.3,0.1,0.1-0.2,0.1s-0.7,0.6-1.5,1.8
			c-0.5,0.8-1,1.7-1.4,2.6c-0.1,0.3,0.1,0.4,0.2,0.5c0.3,0.2,4.7,2.9,5.7,3.5c2.4,1.5,4.9,2.8,7.5,3.8c0.8,0,0.8-0.2,0.9-0.3
			c0.2-0.2,0.7-0.2,0.5,0c-0.6,0.8-1.1,1.5-1.6,2.4c-0.4,0.7-1.2,2.2-1.3,2.5s-0.1-0.2-0.1-0.5c0-0.4,0.3-0.8-0.3-1.3
			c-1.1-0.9-6.1-3.8-6.8-4.2s-5.6-3.2-6-3.3c-0.3-0.1-0.5-0.4-0.7,0c-0.9,1.4-1.6,2.8-2.2,4.3c-0.1,0.3-0.1,0.7,0,1
			C204.3,273.7,204.4,273.8,204.2,273.7z"/>
    <path id="Path_1192" class="st0" d="M226.8,244.1c-0.2-0.7-0.6-1.3-0.9-1.9c-0.2-0.3-0.2-0.3,0.3-0.7c0.2-0.1,4.6-3.4,5.5-4.1
			c1.2-0.9,5.2-3.6,5.7-4s1-0.6,1.2-0.1c0.2,0.4,0.7,1.6,0.8,1.9c0.1,0.4-0.1,0.1-0.4-0.2c-0.2-0.2-0.7-0.2-1.8,0.6
			c-1.1,0.8-2.7,1.8-2.9,2s-0.2,0.2-0.1,0.4c0.2,0.5,3.2,4.8,4,5.9c1.6,2.4,3.5,4.7,5.5,6.9c0.3,0.1,0.6,0.2,1,0
			c0.2,0,0.5,0,0.1,0.3s-1.6,1-2,1.3c-0.4,0.3-1.6,1.2-2,1.5c-0.5,0.4-0.3,0-0.1-0.3s0.4-0.5,0.1-1.2c-1.3-2.3-2.7-4.5-4.2-6.6
			c-0.5-0.7-4.3-5.8-4.6-6.1c-0.1-0.2-0.2-0.2-0.5,0s-3.3,2.5-3.8,2.9c-0.3,0.3-0.5,0.4-0.6,0.8
			C226.8,243.8,226.8,244.4,226.8,244.1z"/>
    <path id="Path_1193" class="st0" d="M361.7,261.4c3.8,3.8,3.7,10-0.1,13.7c-0.2,0.2-0.4,0.4-0.6,0.5c-3.9,3.3-9.7,3.1-13.4-0.5
			c-3.7-3.9-3.5-10,0.4-13.7c3.7-3.8,9.7-3.9,13.5-0.2C361.6,261.2,361.7,261.3,361.7,261.4z M350.4,263.7c-3.3,2.4-4,7-1.6,10.3
			c0,0.1,0.1,0.1,0.1,0.2c3.3,2.5,7.9,1.9,10.5-1.3c3.3-2.6,4-7.4,1.4-10.7c-0.1-0.1-0.2-0.3-0.3-0.4
			C358.6,260.2,354.5,259.7,350.4,263.7L350.4,263.7z"/>
    <path id="Path_1194" class="st0" d="M367.2,353.1c-1.7,5-7.2,7.6-12.2,5.9c-0.3-0.1-0.7-0.2-1-0.4c-4.5-2.1-6.8-7.2-5.3-11.9
			c1.8-5,7.3-7.5,12.2-5.8C366,342.6,368.8,348,367.2,353.1z M360.1,343.8c-3.5-1.9-7.9-0.6-9.8,2.8c-0.1,0.1-0.1,0.3-0.2,0.4
			c-0.9,2.5,0.1,6.3,5.7,8.4c5.4,2,9.5,0,10.4-3.6C366.6,350.5,366.7,346.2,360.1,343.8z"/>
    <path id="Path_1195" class="st0" d="M360.2,297.4c-0.8,0-1.6-0.1-2.5-0.3c-0.6-0.1-0.6-0.1-0.8-0.4c-1.6-2.1-2.5-4.7-2.5-7.3
			c-0.4-4.5,2.5-8.6,6.8-10c3.8-1,7.9,0.3,10.4,3.5c1.3,1.9,2.1,4.1,2.2,6.5c0.1,1.4,0.2,2.2,0.3,2.6c0.1,0.7,0.1,0.9,0.3,1.1
			s-0.1,0.4-0.4,0.4s-1.4,0.2-1.9,0.3c-0.4,0.1-1.2,0.3-1.4,0.4c-0.6,0.1-0.6,0-0.1-0.4c1-0.5,1.7-1.5,1.9-2.6
			c0.5-2.6-0.2-5.2-1.9-7.2c-2.3-2.4-5.9-3-8.9-1.5c-3.3,1.2-5.5,4.4-5.6,7.9c-0.2,2.8,1.5,5.4,4.1,6.4
			C360.6,297.2,361,297.4,360.2,297.4z"/>
    <path id="Path_1196" class="st0" d="M375.6,299.7c0,0.7,0.3,4,0.5,4.6c0.2,0.8-0.2,0.4-0.2,0.1c-0.1-0.4-0.5-0.7-0.9-0.8
			c-2.6,0-5.3,0.2-7.9,0.6c2.2,2,4.5,3.8,6.9,5.4c0.5,0.5,1.1,0.8,1.8,1c0.2,0,0.1,0.1,0.2-0.1c0.1-0.3,0.4-1.3,0.4,0.2
			c0,0.4,0,1.4,0,1.7s0.1,1,0.1,1.2c0.1,0.8,0,0.6-0.6-0.1c-1-1.1-2.2-2-3.4-2.9c-0.6-0.5-4.8-3.6-4.8-3.6s-5.9,5.6-7,6.9
			c-0.9,0.9-1.6,1.9-2.3,2.9c-0.2,0.4-0.4,0.6-0.3,0.2c0-0.3,0.2-1.9,0.3-2.6c0-0.6,0.1-2.5,0.1-2.7c0-0.4,0.2-0.1,0.4,0
			c1.4-0.9,2.7-2,3.8-3.3c1.4-1.4,3.7-3.9,3.9-4.1c-1.9,0.1-3.9,0.4-5.8,0.7c-0.7,0.1-1.4,0.3-2,0.7c-0.2,0.2-0.4,0.5-0.4,0.8
			c0,0.2-0.3,0.4-0.3,0c0-0.3-0.1-2-0.1-2.6s-0.2-2-0.3-2.2s0.2-0.4,0.3-0.1c0.1,0.3,0.3,0.5,0.5,0.5c0.7,0.3,1.5,0.3,8.1-0.5
			c2.6-0.2,5.2-0.5,7.7-1.1c0.7-0.2,1.1-0.4,1.2-1C375.3,299.3,375.6,298.6,375.6,299.7z"/>
    <path id="Path_1197" class="st0" d="M375.7,322.1c-0.1,0.6-0.7,3.8-0.7,4.5s-0.3,0.7-0.4,0.2c0-0.4-0.3-0.7-0.6-0.9
			c-1-0.4-2.1-0.7-3.2-0.8c-2.3-0.4-3.7-0.6-3.7-0.6s-0.7,3-1.1,4.8c-0.5,2.3-1,5.3-1,5.3l4.4,1.2c1.2,0.3,3,1.1,3.5,0.1
			c0.4-0.7,0.6-0.5,0.3,0.2c-0.1,0.3-0.9,3.4-1,4c-0.2,1.1-0.4,0.4-0.3,0.1c0.1-0.3,0.3-0.7-0.7-1.1c-1-0.4-4.4-1.5-7.4-2.4
			c-2.5-0.9-5.1-1.5-7.8-1.8c-0.7,0.1-0.9,0.2-1,0.4c-0.2,0.3-0.6,0.4-0.3-0.1c0.5-1.3,0.9-2.7,1.2-4.1c0.2-1.3,0.4-0.4,0.4-0.1
			c0,0.4,0.2,0.9,0.6,1c2.2,0.9,4.6,1.7,6.9,2.2c0,0,0.7-2.8,1.2-4.9c0.5-2.5,0.9-5,0.9-5s-1.4-0.2-2.4-0.4
			c-1.7-0.3-3.4-0.5-5.1-0.5c-0.4,0.1-0.6,0.4-0.8,0.7c-0.1,0.2-0.5,0.7-0.3-0.2c0.3-1.4,0.5-2.7,0.6-4.1c0.1-1.1,0.4-0.6,0.4-0.3
			c0,0.3,0.2,0.6,0.5,0.8c2.5,0.8,5.1,1.2,7.8,1.5c2.8,0.5,5.5,0.9,8.3,0.9c0.6-0.2,0.6-0.5,0.7-0.7
			C375.5,321.7,375.9,321.3,375.7,322.1z"/>
    <path id="Path_1198" class="st0" d="M357.7,367.5c-1.1,1.1-2.1,2.3-3,3.5c-0.5,0.6-0.4,0.1-0.3-0.1c0.2-0.5,0.1-0.6-0.1-1
			c-1.7-1.8-3.5-3.5-5.5-5c-1.9-1.8-4-3.4-6.3-4.7c-0.4,0-0.7,0-1.5,0.7c-1.1,1-2.1,2.2-3,3.5c-0.3,0.6-0.4,1.2-0.4,1.9
			c0,0.4-0.1,0.4-0.3,0c-0.3-0.8-0.5-1.6-0.6-2.5c0-0.2,0.1-0.5,0.3-0.6c0.5-0.5,4.3-4.8,4.8-5.5c0.6-0.7,1.2-1.4,1.8-2.2
			c0.4-0.6,0.5-0.2,0.4,0.1c-0.2,0.4-0.3,0.8-0.2,1.3c1.8,2.1,3.8,3.9,6.1,5.5c2,2,4.3,3.6,6.7,5c0.3,0,0.7-0.1,0.9-0.3
			C357.8,367,358.3,367.1,357.7,367.5z"/>
    <path id="Path_1199" class="st0" d="M334.3,367.3c0.2,0.5,2.1,3.9,4.2,7.3c2.1,3.5,4.4,7.2,4.7,7.8c0.6,1.1,0.6,1.3-0.4,0.8
			c-1.5-0.8-7.8-3.9-8.8-4.4s-6.1-3.1-6.1-3.1s1.1,8.3,1.2,8.8c0.1,0.5,1,7.4,1,7.7s0,0.9-0.6,0.3c-0.6-0.6-10.4-13.1-10.9-13.7
			c-0.4-0.5-0.9-0.8-1.4-0.8c-0.3,0-0.5,0-0.8,0c-0.2,0.1-0.4-0.1-0.1-0.3c0.4-0.2,3.9-2,4.3-2.2c0.2-0.1,0.5,0,0.2,0.2
			c-0.4,0.3-0.5,0.5-0.4,0.9c0.2,1,7.3,9.8,7.3,9.8s-1.2-7.9-1.4-8.9c-0.2-1-0.9-5.7-0.9-5.7s0-0.3,0.3-0.1c0.3,0.2,7.2,3.7,8,4.1
			s5.2,2.6,5.2,2.6s-3.9-6.3-5.5-8.9c-0.2-0.4-0.6-0.8-1-1c-0.5-0.1-0.7,0.1-1,0.3c-0.2,0.1-0.4-0.1,0.1-0.4
			c0.6-0.4,1.1-0.7,1.6-1.2c0.4-0.3,1.4-1.3,1.6-1.4s0.4,0,0.2,0.2C334.2,366.1,334,366.8,334.3,367.3z"/>
    <path id="Path_1200" class="st0" d="M291.4,391.4c0,0.3,0.1,4.2,0.1,4.6c0,0.2-0.2,0.2-0.3-0.3c-0.1-0.4-0.4-0.7-0.8-0.8
			c-1.4-0.2-2.9-0.2-4.3-0.1c-0.1,1.7,0,3.3,0.4,5c0.4,0.5,0.5,0.4,0.7,0.5c0.2,0,0.7,0.3,0.4,0.3c-0.6-0.1-3.9-0.1-4.7,0
			c-0.5,0.1-0.3-0.2,0.2-0.3c0.5-0.1,0.7-0.4,0.9-0.9c0.1-1.5,0.2-3,0.1-4.5c-1.5,0-3.1,0-4.6,0.2c-0.3,0.2-0.5,0.5-0.5,0.9
			c0,0.3-0.4,0.6-0.3,0.2c0.1-1.4,0.1-2.8,0-4.1c-0.1-0.5,0-0.5,0.2-0.1c0.2,0.4,0.1,0.6,0.6,0.8c1.5,0.1,3,0.2,4.6,0.2
			c0,0,0-3.8-0.1-4.4c-0.1-0.5-0.5-0.9-1-1c-0.3,0-0.5-0.3-0.2-0.2c1.5,0.1,3,0.1,4.5,0c0.5,0,0.2,0.2-0.2,0.3
			c-0.5,0.1-0.9,0.5-1,0.9c-0.1,0.6-0.1,4.3-0.1,4.3s3.5,0,4.1-0.1c0.5-0.1,0.9-0.5,0.9-0.9C291.2,391.4,291.5,391,291.4,391.4z"/>
    <path id="Path_1201" class="st0" d="M259.6,400.4c-1.6-0.8-3.3-1.4-5.1-1.8c-0.6-0.1,0-0.2,0.3-0.2c0.5,0,0.9,0.1,1.2-0.2
			c2-3.7,3.5-7.6,4.8-11.7c0.9-2.4-0.3-5.1-2.8-6.1c-0.2-0.1-0.4-0.1-0.5-0.2c-4-1.4-5.6,0.8-7.8,4.8c-1.6,2.9-3,5.8-4.1,8.9
			c0,0.3,0.1,0.6,0.4,0.8c0.4,0.3,0.6,0.8,0.2,0.5c-1.4-0.9-2.9-1.6-4.4-2.1c-0.3-0.1-0.1-0.3,0.4-0.2c0.4,0.1,0.5,0,0.9-0.2
			c2.1-3.3,4-6.8,5.8-10.3c1-1.9,2.9-3.3,5-3.8c3.3-0.3,6.5,1.1,8.5,3.7c1.2,1.9,1.5,4.2,0.8,6.3c-0.4,1.6-4,9.7-4,10.8
			c0,0.3,0.1,0.6,0.4,0.8C259.8,400.2,260,400.6,259.6,400.4z"/>
    <path id="Path_1202" class="st0" d="M234.4,389.6c0,0-0.8-8.1-1-11c-0.3-3.3-1.1-9.6-1.1-9.6s-6.4,6.9-7.2,7.8s-1.6,1.7-1.6,2.2
			c0,0.3,0.1,0.6,0.4,0.9c0.1,0.2,0.2,0.7,0.1,0.5c-0.5-0.6-1.1-1.2-1.8-1.8c-0.5-0.5-1.1-1-1.7-1.4c-0.4-0.3,0.1-0.2,0.3-0.1
			c0.2,0.2,0.6,0.3,0.9,0.2c2.5-2.1,4.8-4.5,6.9-6.9c1.7-1.8,5.5-6,5.9-6.5c0.3-0.4,0.3-0.2,0.3,0.2c0,0.5,0.7,8.9,0.9,9.9
			c0.1,0.9,0.6,6.6,0.6,7.2s0.2,2.8,0.2,2.8s2.9-4.2,3.9-5.8c1.2-1.5,2.2-3.2,3-5c0-0.5-0.2-1-0.7-1.2c-0.1-0.1-0.2-0.5,0.1-0.2
			c1.2,1,2.6,2,4,2.7c0.6,0.3-0.3,0.1-0.5,0c-0.4-0.1-0.8-0.1-1.2,0c-1.9,2.2-3.6,4.5-5.1,7c-0.8,1.1-3,4.2-3.5,5.1
			c-0.5,0.8-1.7,2.6-2,3C234.6,390.1,234.5,390.1,234.4,389.6z"/>
    <path id="Path_1203" class="st0" d="M226.2,355.6c0.4,0.8,0.9,1.5,1.5,2.2c0.6,0.7,1.2,1.4,1.8,2c0.4,0.3-0.1,0.2-0.5,0
			c-0.3-0.2-0.7-0.4-1.7,0.2c-1.2,0.6-11.7,9.5-12.1,10c-0.5,0.6-0.5,0.9-0.2,1.4c0.2,0.4,0,0.7-0.1,0.4c-0.9-1.4-2-2.7-3.1-3.9
			c-0.5-0.3,0-0.3,0.3-0.1c0.3,0.2,0.4,0.2,0.8,0c4.6-3.3,9.1-6.9,13.2-10.8c0.1-0.3,0.1-0.7-0.1-1
			C226,355.6,225.9,355.2,226.2,355.6z"/>
    <path id="Path_1204" class="st0" d="M217.1,284.2c-0.8,1.6-1.5,3.4-2,5.1c-0.1,0.5-0.3,0-0.3-0.4c0.1-0.6,0.2-0.9-0.8-1.5
			c-4.8-2.2-9.8-4.1-14.9-5.6c-0.4,0-0.8,0.2-1,0.5c-0.2,0.3-0.6,0.4-0.4,0c0.8-1.6,1.5-3.4,2-5.1c0.1-0.6,0.3,0,0.2,0.3
			c-0.1,0.4-0.1,0.8,0.2,1c5,2.5,10.2,4.5,15.6,6c0.7-0.1,0.6-0.3,0.8-0.5C216.9,284,217.4,283.8,217.1,284.2z"/>
    <path id="Path_1205" class="st0" d="M212.4,352.7l4-5.3c0,0-7,0.4-8.5,0.5c-1.5,0.1-5.8,0.3-6.3,1c-0.3,0.5,0,1,0,1.1
			c0.1,0.3,0,0.8-0.2,0.4c-0.1-0.2-0.6-1.6-1.1-2.6c-0.4-0.9-0.9-2-1-2.1c-0.2-0.3,0.1-0.2,0.4,0c0.2,0.3,0.6,0.5,0.9,0.6
			c2.9,0.1,5.8,0.1,8.7-0.1c1.2,0,10.5-0.6,11.2-0.6c0.4,0,0.8-0.2,0.3,0.6c-0.3,0.4-5.8,7.6-6.2,8.2c-2,2.6-3.9,5.2-5.6,8
			c-0.1,0.4,0,0.7,0.1,1.1c0.1,0.3,0,1-0.1,0.8c-0.9-1.7-1.9-3.4-3.1-5c-0.4-0.5,0.1-0.2,0.4,0c0.3,0.1,0.5,0,0.9-0.2
			C209.1,357.1,210.9,354.9,212.4,352.7z"/>
    <path id="Path_1206" class="st0" d="M213,326.6c0.3,0.8,1.1,4,1.5,5.5c0.1,0.5,1,3.9,1.3,4.4c0.1,0.3-0.5-0.2-0.6-0.4
			c0-0.2-0.2-0.4-0.4-0.5c-0.2-0.1-0.4-0.2-0.6-0.2c-2.7,0.5-5.4,1.3-8,2.2c-2.6,0.7-5.2,1.6-7.7,2.8c-0.3,0.3-0.4,0.7-0.3,1.1
			c0,0.3-0.2,1.2-0.3,0.6c-0.1-1-0.4-2.1-0.6-3.1c-0.4-1.4-2-7.1-2.1-7.3c-0.1-0.3-0.1-0.4,0.1-0.5c0.7-0.2,1.4-0.5,2.1-0.8
			c0.5-0.3,0.3,0.1,0,0.4s-0.4,0.4-0.4,1.3c0.3,1.7,0.8,3.3,1.3,5c0,0,2.4-0.6,3.1-0.9s3.3-1,3.3-1c-0.4-1.6-0.9-3.2-1.5-4.7
			c-0.4-0.5-0.6-0.4-1-0.4c-0.3,0-0.8-0.2-0.4-0.3c1.4-0.3,2.7-0.7,4-1.2c0.4-0.2,0,0.3-0.2,0.5c-0.4,0.2-0.6,0.6-0.6,1
			c0.1,0.9,0.3,1.7,0.6,2.5c0.2,0.5,0.6,2.1,0.6,2.1s4.2-1.2,5-1.6c0.7-0.3,1.3-0.3,1.1-1.8c-0.2-1.7-0.8-3.3-1.5-4.8
			c-0.3-0.4-0.6-0.8-1-1c-0.2-0.1-0.7-0.6-0.4-0.5c1,0.3,1.9,0.7,2.9,1.1C212.8,326.1,212.9,326.3,213,326.6z"/>
    <path id="Path_1207" class="st0" d="M233.9,259.6c-0.5,0.5-4.2,4.6-5.3,5.8c-0.4,0.4-1.2,1.4-1.4,1.6c-0.2,0.2-0.3-0.2-0.1-0.5
			c0.2-0.3,0.3-0.7,0.1-1c-2-2.2-4.2-4.2-6.5-6.1c-1.9-1.8-3.9-3.4-6.1-4.9c-0.4-0.1-0.8,0-1.2,0.2c-0.2,0.1-0.8,0.4-0.4,0
			c0.4-0.4,1-1.1,1.9-2c1-1,5-5.2,5.1-5.4s0.3-0.3,0.5-0.1c0.5,0.5,1,1,1.6,1.5c0.6,0.4,0.1,0.3-0.2,0.2c-0.3-0.1-0.4-0.2-1.1,0.2
			c-1.3,1.1-2.4,2.2-3.5,3.5l4.8,4.4c0,0,3.3-3.1,3.4-3.7c0-0.3,0-0.5-0.1-0.8c-0.1-0.2,0-0.7,0.2-0.4c0.8,1,1.6,1.8,2.6,2.6
			c0.4,0.3-0.1,0.3-0.3,0.2c-0.4-0.1-0.5-0.4-1.1-0.1c-1.2,1.1-2.3,2.2-3.3,3.4c0,0,3.4,2.9,4,3.4c0.8,0.6,1.4,0.8,2.3,0
			c1.2-1.1,2.3-2.3,3.2-3.6c0.2-0.5,0.3-1,0.2-1.5c0-0.3,0.2-0.7,0.2-0.4s0.8,2.4,0.8,2.8C234.3,259.2,234.2,259.3,233.9,259.6z"/>
    <path id="Path_1208" class="st0" d="M211.7,317.4c0,0.4,0.1,2.3,0.3,3.2c0.1,0.5-0.2-0.1-0.3-0.4c0-0.3-0.2-0.6-0.5-0.7
			c-2.7-0.2-5.4-0.1-8,0.3c-3,0.1-5.9,0.5-8.8,1.2c-0.3,0.3-0.5,0.8-0.4,1.2c0,0.3-0.5,1.1-0.4,0.5c0-0.4,0-2.1-0.1-2.7
			c-0.3-2-0.4-4.1-0.3-6.2c0.5-2.2,2.4-3.9,4.6-4c2,0,3.8,1.1,4.6,2.9c0.3-0.4,0.7-0.8,1.2-1.1c2.7-1.6,5.2-3.4,7.6-5.5
			c0.2-0.4,0.2-0.8,0.1-1.2c-0.1-0.7,0.1-1.2,0.5,0c0.3,1.4,0.1,2.8-0.5,4c-1.6,1.6-3.3,3-5.3,4.1c-0.8,0.5-2.7,1.6-2.7,2.7
			c0,0.5,0,1.1,0.1,1.6c0,0,2.7-0.3,3.5-0.4c1.4,0,2.7-0.3,4-0.7c0.2-0.2,0.4-0.5,0.3-0.8c0-0.2,0.5-1.1,0.4,0.1
			C211.6,316,211.6,317,211.7,317.4z M200.5,313c-1.9-1.2-4.5-0.7-5.8,1.2c-0.5,1.2-0.6,2.6-0.4,3.9l3.9-0.3c0.6,0,4.1-0.3,4.1-0.3
			S202.7,314.2,200.5,313L200.5,313z"/>
    <path id="Path_1209" class="st0" d="M280,256.9c-2.4-2.9-3.7-6.5-3.7-10.2c0.1-2.3,1-4.6,2.5-6.4l0.9-1.1c2.3-2.3,3.6-5.3,3.6-8.5
			c0.1-2-0.1-4-0.7-6c-0.8,6.4-4.1,12.3-9.2,16.4c-2.3,2-6.1,5.3-6.1,9.4c0.3,4.6,2.1,9,5.1,12.5c-0.9-2.4-1.4-4.9-1.4-7.4
			c0-1.7,0.2-3.4,0.6-5.1l0.1-0.2l0.1,0.2C273.8,253.6,276.7,255.8,280,256.9z"/>
    <path id="Path_1210" class="st0" d="M281.2,239.2c2-0.8,9.2-3.9,9.2-8.9c-0.3-3.2-1.6-6.2-3.9-8.5
			C288.6,228.1,286.5,235.1,281.2,239.2z"/>
    <path id="Path_1211" class="st0" d="M308.2,229.6c-2.7,2.5-5.9,4.5-9.3,5.7l-0.1-0.2c3-3.4,4.8-7.7,5.4-12.1
			c-5.7,8.9-9.1,10.5-13.1,12.2l-1.8,0.8c-4.8,2.3-10.3,5.5-10.3,10.6c-0.4,3.7,0.7,7.4,3.1,10.3c-0.4-1.5-0.6-3-0.7-4.5
			c0-1,0.1-2.1,0.4-3.1l0.1-0.4l0.1,0.4c1,3.2,3.1,6,6,7.9c-0.1-0.8-0.1-1.6-0.1-2.4c0-3.8,0.9-10.4,6.7-12.9
			C304.9,237.4,307.5,231.6,308.2,229.6z"/>
    <path id="Path_1212" class="st0" d="M299.5,250.4c-0.4-3.6,0.3-7.3,2-10.5C294,242.8,289,250,289,258c0,0.5,0,0.8,0,1
			c1.3-3.5,3.5-6.7,6.4-9.1l0.1-0.1l0.1,0c0,0,0,0,0,0.1c-0.4,2.8-1,5.5-1.8,8.3C294.8,257.6,299.5,254.4,299.5,250.4z"/>
    <path id="Path_1213" class="st0" d="M309.4,249.7c0-1.5-0.3-2.9-0.8-4.3c-0.5,1.7-1.4,3.1-2.7,4.3l0,0l-0.1-0.1
			c0.9-1.4,1.3-3.1,1.2-4.9c0-1.2-0.1-2.4-0.3-3.6c-0.1-0.5-0.1-1-0.1-1.5c0.1-2.1,0.7-4.2,1.8-6c-2.9,2.2-5,5.3-5.9,8.9
			c-0.6,2.2-1.1,4.4-1.5,6.6c-0.1,0.8-0.3,1.6-0.5,2.4c-0.8,2.8-1.9,5.5-3.2,8.1c2.1-1.3,3.8-3.2,4.8-5.5l0.1-0.3l0.1,0.3
			c0.1,0.7,0.1,1.4,0.1,2c0,1.9-0.4,3.9-1.1,5.7C302.6,260.6,309.4,254.9,309.4,249.7z"/>
    <path id="Path_1214" class="st0" d="M321.4,238.4c-2.3-1.7-5.2-2.2-8-1.5l-0.3,0.1l0.2-0.3c1.5-1.8,3.2-3.2,5.2-4.4
			c-3.1-0.6-6.2,0.4-8.3,2.8c-1.3,2.3-1.9,4.8-1.8,7.4c0,0.5,0,1,0,1.2c2.3-4,2.6-4,2.7-4l0.1,0v0.1c0.1,0.5,0.1,1,0.1,1.5
			c0,1.8-0.2,3.5-0.5,5.2C314.9,238.9,320,238.4,321.4,238.4z"/>
    <path id="Path_1215" class="st0" d="M287.5,378.4l0.4-19c0.3,0.4,0.6,0.8,0.8,1.3c0.3,0.7,0.6,1.5,0.8,2.2c0.4,0.4,0.7,1,0.8,1.6
			c0.1,0.9,0.6,4.1,0.7,4.8c0.1,0.7,0.1,1.3,0.6,1.3c2.5,0,4-4.2,3.4-5.5c-0.5-1.1-1.2-2-2-2.9c0,0-1.4-4.4-1.6-4.9s-1.2-1-1.5-1.2
			c-0.1-0.1-1-1-1.9-1.8l0.1-5.3c-0.3,0-0.6,0-0.8,0c-2.3,0-4.5-0.9-6.1-2.5l0.9,32L287.5,378.4z M293.9,368
			c-1.1,1.6-1.3,1.6-1.7,1.6s-0.4-1.7-0.1-2.6c0.3-0.9,0.9-1.8,1.7-1.8C294.5,365.3,295,366.4,293.9,368L293.9,368z"/>
    <path id="Path_1216" class="st0" d="M329.7,306.1c2.1,0.6,4.2,1,6.4,1.2c3.6-0.5,7-2.2,9.5-4.8c1.3-0.9,2.7-1.7,4.1-2.4
			c0,0-2.6,0-6-0.3c-3.1-0.2-6.2,0.1-9.1,1.1c-1.7,0.6-3.2,1.6-4.5,2.8c-0.5,0.6-1.1,1-1.9,1.2c-1,0.2-1.8,0.4-1.8,0.4
			c0.2-0.9,0.7-1.6,1.3-2.2c1.7-1.2,3.3-2.5,4.7-4.1c2.3-2.7,4.2-5.8,5.8-9c0.2-0.9,2.2-5.4,2.2-5.4c-1.6,1.2-3.4,2.2-5.1,3.2
			c-2.8,1.5-5.2,3.6-7,6.3c-1.2,2.3-1.8,4.8-1.9,7.3c-0.1,2.4-1.1,4.7-2.8,6.5c-1.6,1.7-3.3,3.3-5.1,4.7c-0.9,0.7-1.9,1.2-3,1.5
			c-0.7,0.1-1.4,0.2-2,0.1c0,0,1-1.3,1.7-1.5c1.7-0.6,3.3-1.6,4.6-2.9c2-2.5,3.5-5.5,4.1-8.7c0.2-0.9,1.1-3.8,1.1-3.8
			c-1.3,1.2-2.7,2.3-4.2,3.3c-2.6,1.7-4.8,4-6.5,6.7c-1,1.6-1.3,3.5-0.8,5.2c0,0.4-0.1,0.6-0.8,1.3c-0.6,0.5-1.4,0.8-2.1,0.9
			c-1.6,0.6-3.4,0.9-5.1,1c-2-0.2-4-0.6-6-1.1c-0.7,0-1.8,0.6-2.2,0.6c-0.4,0-0.8-0.1-1.2-0.1c-0.4,0-1.8,0-1.8,0
			c0.3-0.7,0.4-1.5,0.4-2.2c0-0.3,0.1-0.8,0.6-0.9c0.8-0.4,1.6-0.8,2.4-1.3c0.4-0.2,0.9-0.3,1.4-0.3c1.9,0,3.7-0.5,5.4-1.5
			c2.8-1.8,5.1-4.3,6.8-7.1c1.2-1.2,2.5-2.3,3.8-3.3c0,0-2.5,0.7-5.3,1.5c-3,0.9-5.9,2.3-8.5,4.1c-1.1,1-2,2.2-2.8,3.5
			c-0.4,0.9-0.9,1.7-1.5,2.4c-0.4,0.3-1.9,1.1-1.9,0.9c0.2-0.6,0.5-1.2,0.9-1.8c0.3-0.6,1.4-2.3,2.1-3.3c0.5-0.8,1-1.7,1.3-2.6
			c0.3-0.9,0.7-1.8,1.3-2.5c1.1-1.6,2.9-2.6,4.8-2.6c2,0,4-0.1,6.1-0.3c2.6-0.4,5.1-1.4,7.3-2.9c0.8-0.4,4.2-3,4.2-3
			s-3.4,0.6-4.5,0.7c-2.6,0.1-5.1,0.4-7.6,0.8c-2.3,0.8-4.5,1.9-6.5,3.4c-1.4,1-2.8,2.1-4.1,3.2c0-0.6,0-1.2,0.1-1.9
			c0.1-0.8,0.6-1.5,1.3-2c2-1.1,3.9-2.4,5.6-4c1.8-2,3.2-4.1,4.4-6.5c0.3-0.9,2-4.4,2-4.4c-1.2,1-2.5,1.8-3.9,2.5
			c-2.9,1.4-5.5,3.4-7.5,5.9c-1.1,1.4-1.8,3.1-2,4.9c0,0.8-0.2,1.6-0.4,2.4c-0.4,0.8-0.6,1.6-0.6,2.5c0,1-0.3,1.9-0.6,2.8
			c-0.1,0.6-0.4,1.2-0.6,1.8c-0.3,0.3-0.5,0.7-0.6,1.1c-0.7,1.1-1.5,2.2-2.3,3.3c0,0-0.6-0.8,0.3-2.9c1.1-2.2,1.8-4.6,2-7.1
			c-0.1-2-0.5-4-1.1-6c-0.4-1.2-1.9-5.3-1.9-5.3c-0.1,1.3-0.4,2.6-0.8,3.9c-1.2,2.8-1.9,5.7-2.2,8.6c0.1,2.4,0.8,4.8,2.1,6.8
			c0.6,0.8,0.9,1.7,0.7,2.7c-0.1,0.9-0.5,1.7-1,2.4c-0.4,0.7-0.6,1.5-0.7,2.3c-0.4,2-1.7,3.8-3.4,4.8c-0.1,0.1-0.3,0.3-0.5,0.4
			l0.7-26.8c0-6.1,1.5-12.2,4.4-17.6c0.5-0.7,0.7-1,0.7-1c2.2-3,5.5-4.9,9.2-5.3v-2.2c0,0-16.9,0-20.1,0h-0.1c-3.3,0-18.4,0-18.4,0
			v2.2c3.7,0.4,7,2.3,9.2,5.3c2.9,4,4.7,6.4,5.2,19.1l0.9,30.6c-1.4,0.9-2.3,2.3-2.5,3.9c-0.4-0.6-0.5-1.3-0.2-2
			c0.8-1.8,1.1-3.9,0.8-5.9c-0.9-3-2.4-5.7-4.4-8.1c-0.9-1.1-2.6-3.7-2.6-3.7s0,2.5-0.1,4.4c-0.5,2.7-0.4,5.5,0.3,8.1
			c0.8,2.2,2.2,4.1,4.1,5.4c0.6,0.5,1,1.2,1.1,2c0.1,0.7,0.1,1.4-0.1,2c0,0.7-0.1,1.4-0.2,2.1c-0.2,0.7-0.8,1.1-0.9,1.8
			c-0.2,1-0.4,2-0.7,3c-0.1,0.5-0.5,0.6-0.9,1.4c-0.2,0.4-0.4,0.8-0.3,1.2c-0.9-0.8-1.8-1.6-2.5-2.6c-1.1-3-3.6-5.1-6.7-5.7
			c-2.1-0.3-4.2-0.4-6.4-0.1c-1.8,0-3.6-0.2-5.3-0.6c1.5,0.5,2.9,1.4,3.9,2.7c1.9,2.1,4.2,3.8,6.8,4.9c1.7,0.5,3.5,0.5,5.1,0
			c0.7-0.2,1.3-0.5,1.9-0.2c0.5,0.3,1,0.7,1.4,1.2c0,0-1.1,0.6-2,1c-2.9,1-5.3,2.9-7,5.4c-0.9,2.1-1.5,4.4-1.9,6.6
			c-0.3,1.3-0.6,2.5-1,3.8c0,0,1.7-1.4,3-2.4c2.1-1.3,4-2.9,5.6-4.8c1.5-2.4,2.4-5.1,2.6-8c0-0.6,0.4-1,1-1.1c0.6,0.2,1,0.7,1,1.3
			c0,0.7,0.2,1.4,0.6,2c0.3,0.4,1,1,1.6,1.9c0.5,1.1,1,2.3,1.4,3.5c0.4,0.8,0.6,0.7,1.2,1.8c0.6,1.1,0.5,1.7,1,2.5
			c0.5,0.8,0.7,0.7,0.7,0.7l-0.3-5.2c-0.1-0.1-0.3-0.2-0.4-0.3c-0.2-0.3-0.4-0.6-0.5-0.9c0,0,0.9-0.6,1.5-0.9
			c0.4-0.2,0.9-0.2,1.3,0.1c1.8,1.4,3.9,2.3,6.2,2.5c3.6-0.7,7.1-2,10.4-3.9c1.3-0.6,2.7-1,4.1-1.4c0,0-2.9-0.3-4.5-0.6
			c-2.4-0.5-4.8-0.9-7.2-1.2c-0.7,0-1.3,0.1-2,0.2l0.1-1.6c0,0-1.3,1.1-1.7,1.4c-1,0.7-2.1,1.2-3.2,1.6c-0.8,0.3-1.5,0.5-2.4,0.7
			c0,0-0.2-0.2-0.3,0.5s-0.2,0.6-1.1,0.8c-0.5,0.1-1.1,0.3-1.6,0.5c0,0,0.7-1.8,0.8-2c0.1-0.3,0.2-0.6,1.3-0.8c2.6-0.5,5-1.8,7-3.6
			c2.2-2.1,3.9-4.5,5-7.3c0.9-1.6,2.1-3,3.5-4.3c0,0-2.2,0.9-6.5,2.4c-0.2,0.1-0.4,0.1-0.6,0.2l0.1-5.6l0,0v-0.4l-0.3,0.1
			c-0.6,0.3-2.5,0.8-3.2,1.2c-0.7,0.3-1.3,1.1-1.9,1.4c-1,0.4-2,1-2.8,1.7l0,0.9l0,0l0.2,6c-1.1,1.4-1.8,3.1-1.9,4.9
			c-0.2,1.1-0.3,1.7-0.5,2.2c-0.2,0.7-0.5,1.3-0.7,2c-0.5-0.9-1-1.7-1.7-2.5c-0.6-0.6-0.7-1.5-0.4-2.3c0.2-0.9,0.5-1.7,0.9-2.5
			c0.4-1.1,1-3.3,1.4-4s0.2,0.6,0.9-3.4c0.4-2.5,2.2-4.5,4.5-5.2c0.6-0.3,1.2-1.1,1.9-1.4c0.7-0.3,2.6-0.9,3.2-1.2
			c1.4-0.5,2.6-1.4,3.7-2.5c0.5-0.8,1.3-1.5,2.1-2c1-0.4,2.2-0.5,3.3-0.5c1.6-0.1,2,1.2,2.3,1.6c0.3,0.4,0.4,1,0.4,1.5
			c-0.1,2.5,0.9,4.9,2.9,6.5c2.6,1.9,5.6,3.1,8.8,3.5c1.5,0.4,5.1,1.9,5.1,1.9s-0.6-0.2-3.1-4.1c-1.6-2.8-3.8-5.2-6.4-7
			c-1.6-0.7-3.2-1.3-4.9-1.6c-0.6-0.1-1.1-0.3-1.6-0.7c-0.5-0.5-0.9-1-1.2-1.6c0.2,0,0.4,0,0.6,0c1.5,0.7,3.2,1,4.9,0.9
			c2,0,3.9-0.5,5.7-1.4c0.6-0.2,1.3-0.2,1.9,0.2c0.6,0.4,1.4,0.9,3,1.9c2.2,1.5,4.7,2.3,7.3,2.5c3.1-0.2,6.2-0.9,9.2-2
			c1.2-0.5,2.5-0.9,3.8-1.2c0,0-2.4-0.4-3.8-0.7c-2.9-1-5.9-1.6-9-2c-2,0-4,0.6-5.7,1.7c-0.5,0.5-1.3,0.7-2,0.4
			c-0.7-0.1-1.3-0.6-1.5-1.3c2-0.1,3.9-0.8,5.5-2c1.3-1.1,2.5-2.3,3.6-3.6c0.6-0.6,1.1-1.4,2.5-2.6
			C326.9,305.9,328.4,305.6,329.7,306.1z M336.8,301c3.2-0.6,6.4-0.8,9.6-0.4c-0.8,0.2-5.7,2.3-9.1,3.2c-2.4,0.6-4.9,1-7.4,1.2
			l0-0.1C331.8,303.1,334.2,301.8,336.8,301z M329.4,294.1c2.1-2.9,4.9-5.1,8.2-6.4c0,0-4.2,5.6-5.5,7.4c-1.3,1.8-4.8,6.8-4.8,6.8
			C327.3,299.1,328,296.4,329.4,294.1L329.4,294.1z M315.8,306.6c1.8-2.6,4.3-4.8,7.1-6.3c0,0-2.9,4.9-4.5,7.1s-4,5-4,5
			S313.4,310.5,315.8,306.6L315.8,306.6z M302.9,304.1c2.8-1.5,5.7-2.8,8.7-3.9c0,0-5,4.4-7.5,6.2c-1.8,1.2-3.6,2.3-5.5,3.2
			C299.4,307.4,301,305.5,302.9,304.1L302.9,304.1z M311.1,294.1c2.9-0.6,5.8-0.9,8.8-1c0,0-5.8,2-8.1,2.8c-2.1,0.6-4.3,1.1-6.5,1.4
			C307,296,309,294.9,311.1,294.1L311.1,294.1z M303.3,289.9c2.4-2.6,5.3-4.7,8.5-6.3c0,0-3.7,3.7-6.3,6.8c-2.6,3.1-4.3,5.2-4.3,5.2
			l0,0.1C301.5,293.6,302.2,291.6,303.3,289.9L303.3,289.9z M294.5,305.6c-1.2-2-1.9-4.2-1.9-6.6c0.2-3,1-5.9,2.4-8.5
			c0,0-0.1,4.8,0,7.5C295,300.6,294.8,303.1,294.5,305.6L294.5,305.6z M262.9,333.9c-2-0.9-4-1.9-5.8-3.1c2.8-0.4,5.7-0.3,8.5,0.4
			c2.2,0.9,3.8,2.7,4.5,4.9C270.2,336.1,265.3,334.7,262.9,333.9L262.9,333.9z M261.9,352.3c0.3-2.9,1.2-5.8,2.5-8.4
			c1.3-1.8,3.1-3.1,5.3-3.6L261.9,352.3z M289.6,341.3c2.8,0.1,5.6,0.5,8.4,1.1c-3.2,0.8-6.5,1.4-9.8,1.8c-2.1,0.1-4.1,0.1-6.2-0.1
			C282,344.1,283.6,341.9,289.6,341.3L289.6,341.3z M283.2,333.2c2.9-2,6-3.5,9.3-4.4c0,0-5.6,4.8-7.9,6.8c-1.8,1.7-3.5,3.5-5.1,5.4
			C279.6,337.9,280.9,335.1,283.2,333.2L283.2,333.2z M277,324.8c-1.1-1.9-2-4-2.6-6.1c-0.7-2.5-1.7-8.5-1.7-8.5
			c1.7,2.4,3.3,5,4.6,7.6C278,320.1,277.9,322.5,277,324.8L277,324.8z M301.2,318.7c2.1,0.5,4.2,1.2,6.1,2.2c2.7,2.1,5,4.8,6.5,7.9
			c-2.4-1.3-4.8-2.8-7-4.4c-2-1.6-3.9-3.5-5.5-5.6V318.7z M323,315.2c3.1,0.2,6.1,0.8,9,1.8c0,0-6.8,0.9-9,0.9
			c-2-0.1-3.9-0.3-5.9-0.6C318.9,316.2,320.9,315.4,323,315.2L323,315.2z"/>
    <path id="Path_1217" class="st0" d="M312.5,288.1c-0.9,0.5-1.4,1.5-1.3,2.5c-0.1,0.7,0.4,1.4,1.1,1.5c0.2,0,0.5,0,0.7-0.1
			c1-0.3,1.7-1.3,1.5-2.3c0-0.9-0.6-1.7-1.5-1.7C312.8,288,312.6,288.1,312.5,288.1z"/>
    <path id="Path_1218" class="st0" d="M336.7,295.4c-0.9,0.5-1.4,1.5-1.3,2.5c-0.1,0.7,0.4,1.4,1.1,1.5c0.2,0,0.5,0,0.7-0.1
			c1-0.3,1.7-1.3,1.5-2.3c0-0.9-0.6-1.6-1.5-1.7C337,295.4,336.8,295.4,336.7,295.4z"/>
    <path id="Path_1219" class="st0" d="M295.7,318.4c-0.9,0.5-1.4,1.5-1.3,2.5c-0.1,0.7,0.4,1.4,1.1,1.5c0.2,0,0.5,0,0.7-0.1
			c1-0.3,1.7-1.3,1.5-2.3c0-0.9-0.6-1.7-1.5-1.7C296,318.4,295.8,318.4,295.7,318.4z"/>
    <path id="Path_1220" class="st0" d="M324.3,310.7c-0.3,0.6-0.1,1.4,0.6,1.8c0.2,0.1,0.5,0.2,0.7,0.1c1,0,2-0.7,2.2-1.7
			c0.3-0.8-0.1-1.8-0.9-2.1c-0.1-0.1-0.3-0.1-0.5-0.1C325.4,308.9,324.5,309.7,324.3,310.7z"/>
    <path id="Path_1221" class="st0" d="M312,318.4c-0.9,0.5-1.4,1.5-1.3,2.5c-0.1,0.7,0.4,1.4,1.1,1.5c0.2,0,0.5,0,0.7-0.1
			c1-0.3,1.7-1.3,1.5-2.3c0-0.9-0.6-1.7-1.5-1.7C312.3,318.4,312.2,318.4,312,318.4z"/>
    <path id="Path_1222" class="st0" d="M292.5,335.1c-0.9,0.5-1.4,1.5-1.3,2.5c-0.1,0.7,0.4,1.4,1.1,1.5c0.2,0,0.5,0,0.7-0.1
			c1-0.3,1.7-1.3,1.5-2.3c0-0.9-0.6-1.6-1.5-1.7C292.8,335.1,292.7,335.1,292.5,335.1z"/>
    <path id="Path_1223" class="st0" d="M262.1,342.2c1-0.3,1.7-1.3,1.5-2.3c0-0.9-0.6-1.7-1.5-1.7c-0.1,0-0.3,0-0.5,0
			c-0.9,0.5-1.4,1.5-1.3,2.5c-0.1,0.7,0.4,1.4,1.1,1.5C261.7,342.3,261.9,342.3,262.1,342.2z"/>
    <path id="Path_1224" class="st0" d="M271.3,221c1.7,2.3,2.6,5,2.7,7.9c0,1.1-0.1,2.8-0.1,2.8c-0.2,1.7-0.5,3.3-0.9,4.9
			c1.5-2.1,2.6-4.4,3.4-6.9l0.1-0.3l0.1,0.2c0.5,1,0.9,2.2,1,3.3c0.6-1.5,1-3,1-4.6C278.3,224.5,275.3,221.4,271.3,221z"/>
    <path id="Path_1225" class="st0" d="M272.2,233.1L272.2,233.1c-0.1-1.2-0.2-2.5-0.4-3.7c-1.7,3.4-4.1,6.4-7.2,8.8
			c-2.8,2-4.5,5.1-4.8,8.5c0.6,5,3.1,9.6,7.1,12.7c-1.2-3.3-1.9-6.9-1.9-10.4c0.1-1.9,1-3.6,2.5-4.7l0.3-0.3c1.1-1.1,2.1-2.2,3-3.5
			l0,0c0.5-0.7,0.8-1.5,1.1-2.3c0.1-0.4,0.1-0.8,0.2-1.2l0,0C272.3,235.7,272.3,234.4,272.2,233.1z"/>
    <path id="Path_1226" class="st0" d="M242.1,291c-0.9,0-1.6,0.7-1.6,1.6c0,0,0,0,0,0c0,0.4,0.2,0.8,0.5,1.1
			c-0.2-0.1-0.4-0.1-0.6-0.1c-1.1,0-2.1,0.9-2.1,2.1c0,1.1,0.9,2.1,2.1,2.1c0.2,0,0.4,0,0.5-0.1c-0.5,1.5-1.9,2.5-3.4,2.5
			c-3,0-4.3-3.3-4.4-4.1c0.3,1.1,1.5,1.7,2.5,1.4c1.1-0.3,1.7-1.5,1.4-2.5c-0.3-0.9-1.1-1.5-2-1.5c-0.2,0-0.4,0-0.6,0.1
			c0.8-0.8,0.9-2,0.2-2.9c-0.8-0.8-2-0.9-2.9-0.2c-0.4,0.4-0.7,0.9-0.7,1.5c0,0.6,0.3,1.2,0.7,1.6c-0.2-0.1-0.4-0.1-0.7-0.1
			c-1.1,0-2.1,0.9-2.1,2c0,1.1,0.9,2.1,2,2.1c0.9,0,1.7-0.6,2-1.5c-0.1,0.9-1.8,4.1-4.4,4.1c-1.6,0.1-3-1-3.5-2.5
			c0.2,0,0.4,0.1,0.5,0.1c1.1,0,2.1-0.9,2.1-2.1c0-1.1-0.9-2.1-2.1-2.1c-0.2,0-0.4,0-0.6,0.1c0.3-0.3,0.5-0.7,0.5-1.1
			c0-0.9-0.7-1.7-1.6-1.7c0,0,0,0,0,0c-0.4,0-0.7,0-1,0.2c0.4,1.7,0.9,5.1,1,5.6l1.4,9.3h15.4c0,0,0-0.2,0-0.3l1.4-9
			c0.3-2.1,0.7-4.3,1-5.6C242.8,291.1,242.4,291,242.1,291z"/>
    <path id="Path_1227" class="st0" d="M271.1,291c-0.9,0-1.6,0.7-1.6,1.6v0c0,0.4,0.2,0.8,0.5,1.1c-0.2-0.1-0.4-0.1-0.6-0.1
			c-1.1,0-2.1,0.9-2.1,2.1c0,1.1,0.9,2.1,2.1,2.1c0.2,0,0.4,0,0.5-0.1c-0.5,1.5-1.9,2.5-3.4,2.5c-3,0-4.3-3.3-4.4-4.1
			c0.3,1.1,1.5,1.7,2.5,1.4c1.1-0.3,1.7-1.5,1.4-2.5c-0.3-0.9-1.1-1.5-2-1.5c-0.2,0-0.4,0-0.6,0.1c0.8-0.8,0.9-2,0.2-2.9
			c-0.8-0.8-2-0.9-2.9-0.2c-0.4,0.4-0.7,0.9-0.7,1.5c0,0.6,0.3,1.2,0.7,1.6c-0.2-0.1-0.4-0.1-0.7-0.1c-1.1,0-2.1,0.9-2.1,2
			c0,1.1,0.9,2.1,2,2.1c0.9,0,1.7-0.6,2-1.5c-0.1,0.9-1.8,4.1-4.4,4.1c-1.6,0.1-3-1-3.5-2.5c0.2,0,0.4,0.1,0.5,0.1
			c1.1,0,2.1-0.9,2.1-2.1c0-1.1-0.9-2.1-2.1-2.1c-0.2,0-0.4,0-0.6,0.1c0.3-0.3,0.5-0.7,0.5-1.1c0-0.9-0.7-1.7-1.6-1.7c0,0,0,0,0,0
			c-0.4,0-0.7,0-1,0.2c0.4,1.7,0.9,5.1,1,5.6l1.4,9.3h15.4c0,0,0-0.2,0-0.3l1.4-9c0.3-2.1,0.7-4.5,1-5.6
			C271.9,291.1,271.5,291,271.1,291z"/>
    <path id="Path_1228" class="st0" d="M257.8,309.6c-1,0-1.8,0.8-1.8,1.8c0,0,0,0,0,0c0,0.5,0.2,0.9,0.5,1.2
			c-1.2-0.4-2.5,0.3-2.8,1.5s0.3,2.5,1.5,2.8c0.2,0.1,0.4,0.1,0.7,0.1c0.2,0,0.4,0,0.6-0.1c-0.5,1.7-2.1,2.8-3.8,2.8
			c-3.4,0-4.7-3.6-4.8-4.5c0.4,1.2,1.6,1.9,2.8,1.5c1.2-0.4,1.9-1.6,1.5-2.8c-0.3-1-1.2-1.6-2.2-1.6c-0.2,0-0.5,0-0.7,0.1
			c0.9-0.8,1-2.2,0.2-3.2c-0.8-0.9-2.2-1-3.2-0.2c-0.5,0.4-0.8,1-0.8,1.7c0,0.7,0.3,1.3,0.8,1.7c-0.2-0.1-0.5-0.1-0.7-0.1
			c-1.2,0-2.3,1-2.3,2.2c0,1.2,1,2.3,2.2,2.3c1,0,1.9-0.7,2.2-1.6c-0.1,1-2,4.5-4.9,4.5c-1.8,0.1-3.3-1.1-3.8-2.8
			c0.2,0,0.4,0.1,0.6,0.1c1.3,0,2.3-0.9,2.4-2.2c0-1.3-0.9-2.3-2.2-2.4c-0.1,0-0.1,0-0.2,0c-0.2,0-0.4,0-0.6,0.1
			c0.3-0.3,0.5-0.8,0.5-1.2c0-1-0.8-1.8-1.8-1.8c0,0,0,0,0,0c-0.4,0-0.8,0-1.1,0.2c0.5,1.9,1,5.6,1.1,6.1l1.6,10.3h17
			c0,0,0-0.2,0-0.3l1.5-10c0.3-2.3,0.8-4.9,1.1-6.1C258.5,309.6,258.1,309.6,257.8,309.6z"/>
	</g>
</g>
</svg>
